<svg width="200" height="50" viewBox="0 0 200 50" fill="none" xmlns="http://www.w3.org/2000/svg">
  <!-- S -->
  <path d="M28.5 35.5C28.5 39.6421 25.1421 43 21 43H12C7.02944 43 3 38.9706 3 34V32C3 29.2386 5.23858 27 8 27H20C22.7614 27 25 24.7614 25 22V15C25 10.5817 21.4183 7 17 7H10.5C6.35786 7 3 10.3579 3 14.5" stroke="currentColor" stroke-width="6" stroke-linecap="round"/>
  
  <!-- M -->
  <path d="M40 43V10C40 8.34315 41.3431 7 43 7H45.5C46.8807 7 48 8.11929 48 9.5V25L55 9H59L66 25V9.5C66 8.11929 67.1193 7 68.5 7H71C72.6569 7 74 8.34315 74 10V43" stroke="currentColor" stroke-width="6" stroke-linecap="round" stroke-linejoin="round"/>
  
  <!-- OO -->
  <circle cx="95" cy="25" r="14" stroke="currentColor" stroke-width="6"/>
  <circle cx="132" cy="25" r="14" stroke="currentColor" stroke-width="6"/>
  
  <!-- Connect O-O (Fluid Bridge) -->
  <path d="M109 25H118" stroke="currentColor" stroke-width="6" stroke-linecap="round"/>

  <!-- D -->
  <path d="M153 7H164C172.837 7 180 14.1634 180 23V27C180 35.8366 172.837 43 164 43H153V7Z" stroke="currentColor" stroke-width="6" stroke-linejoin="round"/>
  
  <!-- H -->
  <path d="M197 43V7" stroke="currentColor" stroke-width="6" stroke-linecap="round"/>
  <path d="M180 25H197" stroke="currentColor" stroke-width="6" stroke-linecap="round"/>
</svg>
